<svg width="120" height="42" viewBox="0 0 120 42" fill="none" xmlns="http://www.w3.org/2000/svg">
<g filter="url(#filter0_bd)">
<path d="M4 7C4 3.13401 7.13401 0 11 0H36C39.866 0 43 3.13401 43 7V27C43 30.866 39.866 34 36 34H11C7.13401 34 4 30.866 4 27V17.1683V7Z" fill="url(#paint0_linear)"/>
</g>
<path d="M19.6694 13.155L16.9101 10.8095C16.7351 10.6581 16.4976 10.5757 16.2476 10.5757H8.38194C7.86632 10.5757 7.44444 10.9343 7.44444 11.3726V23.5914C7.44444 24.0297 7.86632 24.3882 8.38194 24.3882H19.0069C19.5226 24.3882 19.9444 24.0297 19.9444 23.5914V13.7181C19.9444 13.5056 19.8476 13.3037 19.6694 13.155ZM16.8194 11.4815L18.8788 13.232H17.1319C16.9601 13.232 16.8194 13.1125 16.8194 12.9664V11.4815ZM19.3194 23.5914C19.3194 23.7375 19.1788 23.857 19.0069 23.857H8.38194C8.21007 23.857 8.06944 23.7375 8.06944 23.5914V11.3726C8.06944 11.2265 8.21007 11.107 8.38194 11.107H16.1944V12.9664C16.1944 13.4047 16.6163 13.7632 17.1319 13.7632H19.3194V23.5914Z" fill="url(#paint1_linear)"/>
<path d="M10.1875 16.2344H15.8125V16.7656H10.1875V16.2344Z" fill="url(#paint2_linear)"/>
<path d="M10.1875 17.2969H15.8125V17.8281H10.1875V17.2969Z" fill="url(#paint3_linear)"/>
<path d="M10.1875 18.3594H15.8125V18.8906H10.1875V18.3594Z" fill="url(#paint4_linear)"/>
<path d="M10.1875 19.4219H13.3125V19.9531H10.1875V19.4219Z" fill="url(#paint5_linear)"/>
<rect x="18.5556" y="17.2727" width="4.44444" height="1.54545" fill="white"/>
<g clip-path="url(#clip0)">
<path d="M37.531 12.7768L34.3577 10.0174C34.1564 9.83931 33.8833 9.74243 33.5958 9.74243H24.5504C23.9574 9.74243 23.4722 10.1643 23.4722 10.6799V25.0549C23.4722 25.5706 23.9574 25.9924 24.5504 25.9924H36.7691C37.3621 25.9924 37.8472 25.5706 37.8472 25.0549V13.4393C37.8472 13.1893 37.7358 12.9518 37.531 12.7768ZM34.2535 10.8081L36.6218 12.8674H34.6129C34.4152 12.8674 34.2535 12.7268 34.2535 12.5549V10.8081ZM37.1285 25.0549C37.1285 25.2268 36.9668 25.3674 36.7691 25.3674H24.5504C24.3527 25.3674 24.191 25.2268 24.191 25.0549V10.6799C24.191 10.5081 24.3527 10.3674 24.5504 10.3674H33.5347V12.5549C33.5347 13.0706 34.0199 13.4924 34.6129 13.4924H37.1285V25.0549Z" fill="white"/>
<path d="M27.2656 15.1875H33.7344V15.8125H27.2656V15.1875Z" fill="white"/>
<path d="M27.2656 16.4375H33.7344V17.0625H27.2656V16.4375Z" fill="white"/>
<path d="M27.2656 17.6875H33.7344V18.3125H27.2656V17.6875Z" fill="white"/>
<path d="M27.2656 18.9375H30.8594V19.5625H27.2656V18.9375Z" fill="white"/>
<path d="M25.5021 17.9962L21.5795 20.3158L21.6452 15.5795L25.5021 17.9962Z" fill="white"/>
</g>
<path d="M46.14 16H48.99C49.73 16 50.3833 16.15 50.95 16.45C51.5167 16.7433 51.9567 17.1567 52.27 17.69C52.5833 18.2167 52.74 18.82 52.74 19.5C52.74 20.18 52.5833 20.7867 52.27 21.32C51.9567 21.8467 51.5167 22.26 50.95 22.56C50.3833 22.8533 49.73 23 48.99 23H46.14V16ZM48.95 22.36C49.5633 22.36 50.1 22.24 50.56 22C51.02 21.7533 51.3767 21.4167 51.63 20.99C51.8833 20.5567 52.01 20.06 52.01 19.5C52.01 18.94 51.8833 18.4467 51.63 18.02C51.3767 17.5867 51.02 17.25 50.56 17.01C50.1 16.7633 49.5633 16.64 48.95 16.64H46.88V22.36H48.95ZM56.4017 23.05C55.8951 23.05 55.4384 22.9367 55.0317 22.71C54.6251 22.4767 54.3051 22.1567 54.0717 21.75C53.8384 21.3433 53.7217 20.8833 53.7217 20.37C53.7217 19.8567 53.8384 19.3967 54.0717 18.99C54.3051 18.5833 54.6251 18.2667 55.0317 18.04C55.4384 17.8133 55.8951 17.7 56.4017 17.7C56.9084 17.7 57.3651 17.8133 57.7717 18.04C58.1784 18.2667 58.4951 18.5833 58.7217 18.99C58.9551 19.3967 59.0717 19.8567 59.0717 20.37C59.0717 20.8833 58.9551 21.3433 58.7217 21.75C58.4951 22.1567 58.1784 22.4767 57.7717 22.71C57.3651 22.9367 56.9084 23.05 56.4017 23.05ZM56.4017 22.42C56.7751 22.42 57.1084 22.3367 57.4017 22.17C57.7017 21.9967 57.9351 21.7533 58.1017 21.44C58.2684 21.1267 58.3517 20.77 58.3517 20.37C58.3517 19.97 58.2684 19.6133 58.1017 19.3C57.9351 18.9867 57.7017 18.7467 57.4017 18.58C57.1084 18.4067 56.7751 18.32 56.4017 18.32C56.0284 18.32 55.6917 18.4067 55.3917 18.58C55.0984 18.7467 54.8651 18.9867 54.6917 19.3C54.5251 19.6133 54.4417 19.97 54.4417 20.37C54.4417 20.77 54.5251 21.1267 54.6917 21.44C54.8651 21.7533 55.0984 21.9967 55.3917 22.17C55.6917 22.3367 56.0284 22.42 56.4017 22.42ZM62.7013 23.05C62.1813 23.05 61.7146 22.9367 61.3013 22.71C60.8946 22.4833 60.5746 22.1667 60.3413 21.76C60.1079 21.3467 59.9913 20.8833 59.9913 20.37C59.9913 19.8567 60.1079 19.3967 60.3413 18.99C60.5746 18.5833 60.8946 18.2667 61.3013 18.04C61.7146 17.8133 62.1813 17.7 62.7013 17.7C63.1546 17.7 63.5579 17.79 63.9113 17.97C64.2713 18.1433 64.5546 18.4 64.7613 18.74L64.2313 19.1C64.0579 18.84 63.8379 18.6467 63.5713 18.52C63.3046 18.3867 63.0146 18.32 62.7013 18.32C62.3213 18.32 61.9779 18.4067 61.6713 18.58C61.3713 18.7467 61.1346 18.9867 60.9613 19.3C60.7946 19.6133 60.7113 19.97 60.7113 20.37C60.7113 20.7767 60.7946 21.1367 60.9613 21.45C61.1346 21.7567 61.3713 21.9967 61.6713 22.17C61.9779 22.3367 62.3213 22.42 62.7013 22.42C63.0146 22.42 63.3046 22.3567 63.5713 22.23C63.8379 22.1033 64.0579 21.91 64.2313 21.65L64.7613 22.01C64.5546 22.35 64.2713 22.61 63.9113 22.79C63.5513 22.9633 63.1479 23.05 62.7013 23.05ZM67.566 23.05C67.1393 23.05 66.7293 22.99 66.336 22.87C65.9493 22.7433 65.646 22.5867 65.426 22.4L65.746 21.84C65.966 22.0133 66.2427 22.1567 66.576 22.27C66.9093 22.3767 67.256 22.43 67.616 22.43C68.096 22.43 68.4493 22.3567 68.676 22.21C68.9093 22.0567 69.026 21.8433 69.026 21.57C69.026 21.3767 68.9627 21.2267 68.836 21.12C68.7093 21.0067 68.5493 20.9233 68.356 20.87C68.1627 20.81 67.906 20.7533 67.586 20.7C67.1593 20.62 66.816 20.54 66.556 20.46C66.296 20.3733 66.0727 20.23 65.886 20.03C65.706 19.83 65.616 19.5533 65.616 19.2C65.616 18.76 65.7993 18.4 66.166 18.12C66.5327 17.84 67.0427 17.7 67.696 17.7C68.036 17.7 68.376 17.7467 68.716 17.84C69.056 17.9267 69.336 18.0433 69.556 18.19L69.246 18.76C68.8127 18.46 68.296 18.31 67.696 18.31C67.2427 18.31 66.8993 18.39 66.666 18.55C66.4393 18.71 66.326 18.92 66.326 19.18C66.326 19.38 66.3893 19.54 66.516 19.66C66.6493 19.78 66.8127 19.87 67.006 19.93C67.1993 19.9833 67.466 20.04 67.806 20.1C68.226 20.18 68.5627 20.26 68.816 20.34C69.0693 20.42 69.286 20.5567 69.466 20.75C69.646 20.9433 69.736 21.21 69.736 21.55C69.736 22.01 69.5427 22.3767 69.156 22.65C68.776 22.9167 68.246 23.05 67.566 23.05ZM76.8558 23.06C76.1624 23.06 75.5358 22.9067 74.9758 22.6C74.4224 22.2933 73.9858 21.87 73.6658 21.33C73.3524 20.7833 73.1958 20.1733 73.1958 19.5C73.1958 18.8267 73.3524 18.22 73.6658 17.68C73.9858 17.1333 74.4258 16.7067 74.9858 16.4C75.5458 16.0933 76.1724 15.94 76.8658 15.94C77.3858 15.94 77.8658 16.0267 78.3058 16.2C78.7458 16.3733 79.1191 16.6267 79.4258 16.96L78.9558 17.43C78.4091 16.8767 77.7191 16.6 76.8858 16.6C76.3324 16.6 75.8291 16.7267 75.3758 16.98C74.9224 17.2333 74.5658 17.58 74.3058 18.02C74.0524 18.46 73.9258 18.9533 73.9258 19.5C73.9258 20.0467 74.0524 20.54 74.3058 20.98C74.5658 21.42 74.9224 21.7667 75.3758 22.02C75.8291 22.2733 76.3324 22.4 76.8858 22.4C77.7258 22.4 78.4158 22.12 78.9558 21.56L79.4258 22.03C79.1191 22.3633 78.7424 22.62 78.2958 22.8C77.8558 22.9733 77.3758 23.06 76.8558 23.06ZM82.7689 23.05C82.2622 23.05 81.8056 22.9367 81.3989 22.71C80.9922 22.4767 80.6722 22.1567 80.4389 21.75C80.2056 21.3433 80.0889 20.8833 80.0889 20.37C80.0889 19.8567 80.2056 19.3967 80.4389 18.99C80.6722 18.5833 80.9922 18.2667 81.3989 18.04C81.8056 17.8133 82.2622 17.7 82.7689 17.7C83.2756 17.7 83.7322 17.8133 84.1389 18.04C84.5456 18.2667 84.8622 18.5833 85.0889 18.99C85.3222 19.3967 85.4389 19.8567 85.4389 20.37C85.4389 20.8833 85.3222 21.3433 85.0889 21.75C84.8622 22.1567 84.5456 22.4767 84.1389 22.71C83.7322 22.9367 83.2756 23.05 82.7689 23.05ZM82.7689 22.42C83.1422 22.42 83.4756 22.3367 83.7689 22.17C84.0689 21.9967 84.3022 21.7533 84.4689 21.44C84.6356 21.1267 84.7189 20.77 84.7189 20.37C84.7189 19.97 84.6356 19.6133 84.4689 19.3C84.3022 18.9867 84.0689 18.7467 83.7689 18.58C83.4756 18.4067 83.1422 18.32 82.7689 18.32C82.3956 18.32 82.0589 18.4067 81.7589 18.58C81.4656 18.7467 81.2322 18.9867 81.0589 19.3C80.8922 19.6133 80.8089 19.97 80.8089 20.37C80.8089 20.77 80.8922 21.1267 81.0589 21.44C81.2322 21.7533 81.4656 21.9967 81.7589 22.17C82.0589 22.3367 82.3956 22.42 82.7689 22.42ZM93.4484 17.7C94.1084 17.7 94.6251 17.89 94.9984 18.27C95.3784 18.65 95.5684 19.21 95.5684 19.95V23H94.8584V20.02C94.8584 19.4733 94.7251 19.0567 94.4584 18.77C94.1984 18.4833 93.8284 18.34 93.3484 18.34C92.8018 18.34 92.3718 18.51 92.0584 18.85C91.7451 19.1833 91.5884 19.6467 91.5884 20.24V23H90.8784V20.02C90.8784 19.4733 90.7451 19.0567 90.4784 18.77C90.2184 18.4833 89.8451 18.34 89.3584 18.34C88.8184 18.34 88.3884 18.51 88.0684 18.85C87.7551 19.1833 87.5984 19.6467 87.5984 20.24V23H86.8884V17.74H87.5684V18.7C87.7551 18.38 88.0151 18.1333 88.3484 17.96C88.6818 17.7867 89.0651 17.7 89.4984 17.7C89.9384 17.7 90.3184 17.7933 90.6384 17.98C90.9651 18.1667 91.2084 18.4433 91.3684 18.81C91.5618 18.4633 91.8384 18.1933 92.1984 18C92.5651 17.8 92.9818 17.7 93.4484 17.7ZM100.204 17.7C100.697 17.7 101.144 17.8133 101.544 18.04C101.944 18.26 102.257 18.5733 102.484 18.98C102.711 19.3867 102.824 19.85 102.824 20.37C102.824 20.8967 102.711 21.3633 102.484 21.77C102.257 22.1767 101.944 22.4933 101.544 22.72C101.151 22.94 100.704 23.05 100.204 23.05C99.7772 23.05 99.3906 22.9633 99.0439 22.79C98.7039 22.61 98.4239 22.35 98.2039 22.01V24.94H97.4939V17.74H98.1739V18.78C98.3872 18.4333 98.6672 18.1667 99.0139 17.98C99.3672 17.7933 99.7639 17.7 100.204 17.7ZM100.154 22.42C100.521 22.42 100.854 22.3367 101.154 22.17C101.454 21.9967 101.687 21.7533 101.854 21.44C102.027 21.1267 102.114 20.77 102.114 20.37C102.114 19.97 102.027 19.6167 101.854 19.31C101.687 18.9967 101.454 18.7533 101.154 18.58C100.854 18.4067 100.521 18.32 100.154 18.32C99.7806 18.32 99.4439 18.4067 99.1439 18.58C98.8506 18.7533 98.6172 18.9967 98.4439 19.31C98.2772 19.6167 98.1939 19.97 98.1939 20.37C98.1939 20.77 98.2772 21.1267 98.4439 21.44C98.6172 21.7533 98.8506 21.9967 99.1439 22.17C99.4439 22.3367 99.7806 22.42 100.154 22.42ZM106.082 17.7C106.769 17.7 107.295 17.8733 107.662 18.22C108.029 18.56 108.212 19.0667 108.212 19.74V23H107.532V22.18C107.372 22.4533 107.135 22.6667 106.822 22.82C106.515 22.9733 106.149 23.05 105.722 23.05C105.135 23.05 104.669 22.91 104.322 22.63C103.975 22.35 103.802 21.98 103.802 21.52C103.802 21.0733 103.962 20.7133 104.282 20.44C104.609 20.1667 105.125 20.03 105.832 20.03H107.502V19.71C107.502 19.2567 107.375 18.9133 107.122 18.68C106.869 18.44 106.499 18.32 106.012 18.32C105.679 18.32 105.359 18.3767 105.052 18.49C104.745 18.5967 104.482 18.7467 104.262 18.94L103.942 18.41C104.209 18.1833 104.529 18.01 104.902 17.89C105.275 17.7633 105.669 17.7 106.082 17.7ZM105.832 22.49C106.232 22.49 106.575 22.4 106.862 22.22C107.149 22.0333 107.362 21.7667 107.502 21.42V20.56H105.852C104.952 20.56 104.502 20.8733 104.502 21.5C104.502 21.8067 104.619 22.05 104.852 22.23C105.085 22.4033 105.412 22.49 105.832 22.49ZM110.82 18.77C110.987 18.4167 111.234 18.15 111.56 17.97C111.894 17.79 112.304 17.7 112.79 17.7V18.39L112.62 18.38C112.067 18.38 111.634 18.55 111.32 18.89C111.007 19.23 110.85 19.7067 110.85 20.32V23H110.14V17.74H110.82V18.77ZM118.607 20.59H114.207C114.247 21.1367 114.457 21.58 114.837 21.92C115.217 22.2533 115.697 22.42 116.277 22.42C116.604 22.42 116.904 22.3633 117.177 22.25C117.45 22.13 117.687 21.9567 117.887 21.73L118.287 22.19C118.054 22.47 117.76 22.6833 117.407 22.83C117.06 22.9767 116.677 23.05 116.257 23.05C115.717 23.05 115.237 22.9367 114.817 22.71C114.404 22.4767 114.08 22.1567 113.847 21.75C113.614 21.3433 113.497 20.8833 113.497 20.37C113.497 19.8567 113.607 19.3967 113.827 18.99C114.054 18.5833 114.36 18.2667 114.747 18.04C115.14 17.8133 115.58 17.7 116.067 17.7C116.554 17.7 116.99 17.8133 117.377 18.04C117.764 18.2667 118.067 18.5833 118.287 18.99C118.507 19.39 118.617 19.85 118.617 20.37L118.607 20.59ZM116.067 18.31C115.56 18.31 115.134 18.4733 114.787 18.8C114.447 19.12 114.254 19.54 114.207 20.06H117.937C117.89 19.54 117.694 19.12 117.347 18.8C117.007 18.4733 116.58 18.31 116.067 18.31Z" fill="#AAAAAA"/>
<defs>
<filter id="filter0_bd" x="0" y="-4" width="47" height="46" filterUnits="userSpaceOnUse" color-interpolation-filters="sRGB">
<feFlood flood-opacity="0" result="BackgroundImageFix"/>
<feGaussianBlur in="BackgroundImage" stdDeviation="2"/>
<feComposite in2="SourceAlpha" operator="in" result="effect1_backgroundBlur"/>
<feColorMatrix in="SourceAlpha" type="matrix" values="0 0 0 0 0 0 0 0 0 0 0 0 0 0 0 0 0 0 127 0"/>
<feOffset dy="4"/>
<feGaussianBlur stdDeviation="2"/>
<feColorMatrix type="matrix" values="0 0 0 0 0 0 0 0 0 0 0 0 0 0 0 0 0 0 0.25 0"/>
<feBlend mode="normal" in2="effect1_backgroundBlur" result="effect2_dropShadow"/>
<feBlend mode="normal" in="SourceGraphic" in2="effect2_dropShadow" result="shape"/>
</filter>
<linearGradient id="paint0_linear" x1="23.7294" y1="1.0625" x2="23.4219" y2="33.9993" gradientUnits="userSpaceOnUse">
<stop stop-color="#6DC7FF"/>
<stop offset="1" stop-color="#0FF394"/>
</linearGradient>
<linearGradient id="paint1_linear" x1="13.6944" y1="10.3101" x2="13.6944" y2="24.9227" gradientUnits="userSpaceOnUse">
<stop stop-color="white"/>
<stop offset="1" stop-color="#9DB1F8"/>
</linearGradient>
<linearGradient id="paint2_linear" x1="13" y1="16.2344" x2="13" y2="16.7656" gradientUnits="userSpaceOnUse">
<stop stop-color="white"/>
<stop offset="1" stop-color="white" stop-opacity="0"/>
</linearGradient>
<linearGradient id="paint3_linear" x1="13" y1="17.2969" x2="13" y2="17.8281" gradientUnits="userSpaceOnUse">
<stop stop-color="white"/>
<stop offset="1" stop-color="white" stop-opacity="0"/>
</linearGradient>
<linearGradient id="paint4_linear" x1="13" y1="18.3594" x2="13" y2="18.8906" gradientUnits="userSpaceOnUse">
<stop stop-color="white"/>
<stop offset="1" stop-color="white" stop-opacity="0"/>
</linearGradient>
<linearGradient id="paint5_linear" x1="11.75" y1="19.4219" x2="11.75" y2="19.9531" gradientUnits="userSpaceOnUse">
<stop stop-color="white"/>
<stop offset="1" stop-color="#E5BBF8"/>
</linearGradient>
<clipPath id="clip0">
<rect width="23" height="20" fill="white" transform="translate(19 5.5)"/>
</clipPath>
</defs>
</svg>
